<?xml version="1.0" standalone="no"?>
<!DOCTYPE svg PUBLIC "-//W3C//DTD SVG 1.1//EN" "http://www.w3.org/Graphics/SVG/1.1/DTD/svg11.dtd">
<svg t="1734680201935" class="icon" viewBox="0 0 1024 1024" version="1.1"
    xmlns="http://www.w3.org/2000/svg" p-id="1237" width="200" height="200"
    xmlns:xlink="http://www.w3.org/1999/xlink">
    <path
        d="M512 938.7c157.4 0 341.3-187.2 341.3-405.3S700.5 256 512 256s-341.3 59.2-341.3 277.3S354.6 938.7 512 938.7z"
        fill="#EF3A35" p-id="1238"></path>
    <path
        d="M512 960c-41.7 0-86.5-12.2-129.8-35.2-41.6-22.1-81.6-54.2-115.9-92.9-35.2-39.7-64.3-86.4-84.2-135.2-21.8-53.2-32.8-108.2-32.8-163.4 0-108.6 36.8-188.7 109.3-238.1 59.8-40.8 142.7-60.6 253.4-60.6 110.7 0 193.5 19.8 253.4 60.6 72.5 49.4 109.3 129.5 109.3 238.1 0 55.2-11 110.2-32.8 163.4-19.9 48.8-49 95.5-84.2 135.2-34.3 38.6-74.3 70.8-115.9 92.9-43.3 23-88.1 35.2-129.8 35.2z m0-682.7c-218.3 0-320 81.3-320 256 0 49.6 10 99.2 29.6 147.3 18.1 44.4 44.6 86.9 76.7 123 63.1 71.2 143 113.7 213.7 113.7s150.6-42.5 213.7-113.7c32-36.1 58.5-78.7 76.7-123C822 632.5 832 583 832 533.3c0-174.6-101.7-256-320-256z"
        fill="#333333" p-id="1239"></path>
    <path
        d="M426.7 256c-55.3-25.1-81.3-41.8-77.8-50.1 3.4-8.3 37.7-11.7 102.8-10.2-8.4-41.6-8.4-64.2 0-67.7s28.5 10.7 60.3 42.7c28.5-33.3 48.7-47.5 60.3-42.7 11.7 4.8 11.7 27.4 0 67.7 64.8-4.9 99.7-1.5 104.5 10.2 4.9 11.7-21.7 28.4-79.6 50.1H426.7z"
        fill="#6EC363" p-id="1240"></path>
    <path
        d="M601.2 277.3H422.1l-4.2-1.9c-28.9-13.1-49.7-23.8-63.7-32.8-8.2-5.3-14.1-10-18.3-14.6-11.9-13.3-8.7-25.6-6.8-30.2 6.9-16.7 27.3-20 45.9-21.9 13.2-1.3 30-1.9 51.2-1.9-1.5-10.4-2.2-19.1-2.2-26.4 0-20.7 6.6-33.9 19.5-39.2 16.5-6.8 35.1 1.5 67.5 31.7 22.4-23.3 46.8-41.1 69.5-31.7 19.1 7.9 21.9 28.6 21.9 40.3 0 6.9-0.8 14.9-2.5 24.1 20-0.8 36.3-0.6 49.3 0.7 18.1 1.8 39.8 6.1 47.4 24.4 3 7.3 2.9 15.5-0.4 23.1-5.6 13-20.6 28.7-91.4 55.2l-3.6 1.1z m-169.9-42.6h162.1c21.1-8 35.4-14.5 45-19.4-13.1-0.7-33.3-0.7-64.5 1.7l-30.7 2.3 8.6-29.5c5.2-17.9 7.1-29.3 7.7-36.4-6.3 4.7-16.4 13.8-31.4 31.2l-15 17.5-16.3-16.4c-13.2-13.2-22.8-21.8-29.6-27.3 0.8 7.6 2.3 18.2 5.3 33l5.3 26.2-26.7-0.6c-24.7-0.6-42.7-0.4-55.7 0.2 8.9 4.7 20.6 10.5 35.9 17.5z"
        fill="#333333" p-id="1241"></path>
    <path d="M512.2 368.8m-32 0a32 32 0 1 0 64 0 32 32 0 1 0-64 0Z" fill="#333333" p-id="1242"></path>
    <path d="M300.3 429.1m-32 0a32 32 0 1 0 64 0 32 32 0 1 0-64 0Z" fill="#333333" p-id="1243"></path>
    <path d="M714.4 424.2m-32 0a32 32 0 1 0 64 0 32 32 0 1 0-64 0Z" fill="#333333" p-id="1244"></path>
    <path d="M609.5 521.2m-32 0a32 32 0 1 0 64 0 32 32 0 1 0-64 0Z" fill="#333333" p-id="1245"></path>
    <path d="M456.5 536.3m-32 0a32 32 0 1 0 64 0 32 32 0 1 0-64 0Z" fill="#333333" p-id="1246"></path>
    <path d="M512.3 836.4m-32 0a32 32 0 1 0 64 0 32 32 0 1 0-64 0Z" fill="#333333" p-id="1247"></path>
    <path d="M411.3 706.6m-32 0a32 32 0 1 0 64 0 32 32 0 1 0-64 0Z" fill="#333333" p-id="1248"></path>
    <path d="M619.1 726.8m-32 0a32 32 0 1 0 64 0 32 32 0 1 0-64 0Z" fill="#333333" p-id="1249"></path>
    <path d="M742.4 625.1m-32 0a32 32 0 1 0 64 0 32 32 0 1 0-64 0Z" fill="#333333" p-id="1250"></path>
    <path d="M281.2 602.1m-32 0a32 32 0 1 0 64 0 32 32 0 1 0-64 0Z" fill="#333333" p-id="1251"></path>
</svg>